<svg width="512" height="512" viewBox="0 0 512 512" fill="none" xmlns="http://www.w3.org/2000/svg">
<g clip-path="url(#clip0_5_74)">
<path fill-rule="evenodd" clip-rule="evenodd" d="M512 256C512 397.385 397.385 512 256 512C114.615 512 0 397.385 0 256C0 114.615 114.615 0 256 0C397.385 0 512 114.615 512 256ZM388.741 256C388.741 329.311 329.311 388.741 256 388.741C182.689 388.741 123.259 329.311 123.259 256C123.259 182.689 182.689 123.259 256 123.259C329.311 123.259 388.741 182.689 388.741 256ZM121.833 139.02C154.488 101.602 202.478 78 256 78C309.522 78 357.512 101.602 390.167 139.02C395.977 145.678 406.084 146.365 412.742 140.555C419.4 134.745 420.087 124.638 414.277 117.98C375.804 73.8943 319.15 46 256 46C192.85 46 136.196 73.8943 97.7231 117.98C91.9129 124.638 92.6001 134.745 99.2579 140.555C105.916 146.365 116.023 145.678 121.833 139.02ZM121.833 372.98C116.023 366.322 105.916 365.635 99.2579 371.445C92.6001 377.255 91.9129 387.362 97.7231 394.02C136.196 438.106 192.85 466 256 466C319.15 466 375.804 438.106 414.277 394.02C420.087 387.363 419.4 377.255 412.742 371.445C406.084 365.635 395.977 366.322 390.167 372.98C357.512 410.398 309.522 434 256 434C202.478 434 154.488 410.398 121.833 372.98Z" fill="url(#paint0_linear_5_74)"/>
</g>
<defs>
<linearGradient id="paint0_linear_5_74" x1="140" y1="16.5" x2="403.5" y2="467.5" gradientUnits="userSpaceOnUse">
<stop stop-color="#CF4A4A"/>
<stop offset="1" stop-color="#030202"/>
</linearGradient>
<clipPath id="clip0_5_74">
<rect width="512" height="512" fill="white"/>
</clipPath>
</defs>
</svg>
