<?xml version="1.0" encoding="UTF-8"?>
<svg width="14px" height="14px" viewBox="0 0 14 14" version="1.1" xmlns="http://www.w3.org/2000/svg" xmlns:xlink="http://www.w3.org/1999/xlink">
    <title>arrow-left</title>
    <g id="Final" stroke="none" stroke-width="1" fill="none" fill-rule="evenodd">
        <path d="M7.18437008,13.8093548 L7.80308198,13.1906123 C7.94950497,13.0441893 7.94950497,12.8067632 7.80308198,12.6602791 L2.9552847,7.81251237 L13.6249675,7.81251237 C13.8320593,7.81251237 13.9999666,7.64460505 13.9999666,7.43751326 L13.9999666,6.56251535 C13.9999666,6.35542356 13.8320593,6.18751624 13.6249675,6.18751624 L2.9552847,6.18751624 L7.80308198,1.33971896 C7.94950497,1.19326545 7.94950497,0.955839262 7.80308198,0.809385754 L7.18437008,0.19067385 C7.03791657,0.0442508597 6.80049038,0.0442508597 6.65400635,0.19067385 L0.109832502,6.7348477 C-0.0365904889,6.88130121 -0.0365904889,7.1187274 0.109832502,7.26521143 L6.65400635,13.8093853 C6.80045986,13.9558083 7.03788605,13.9558083 7.18437008,13.8093548 Z" id="arrow-left" fill="#FFFFFF" fill-rule="nonzero"></path>
    </g>
</svg>