<svg width="18" xmlns="http://www.w3.org/2000/svg" xml:space="preserve" viewBox="0 0 335.841 335.841" fill="currentColor">
  <g>
    <path d="m331.947 226.808-1.932-5.573c-1.31-3.778-2.823-7.482-4.532-11.097L306.735 170.5l-25.861-54.679c-1.656-3.501-3.447-6.939-5.387-10.291-.69-1.193-1.312-2.233-1.653-2.718-25.83-36.785-75.364-58.221-137.009-59.039-.608-.009-1.205-.013-1.811-.013C61.197 43.76.632 102.967.005 175.742c-.364 42.22 19.624 82.54 53.467 107.858 7.311 5.469 16.443 8.48 25.715 8.48h223.812c13.745 0 26.062-9.207 29.952-22.39 4.169-14.131 3.822-28.959-1.004-42.882zm-17.75-11.513h-19.735l-43.618-87.761h21.892c.018.042.041.093.058.133l.084.201 41.319 87.427zm-140.699-87.418 39.437 79.33c-7.852-3.842-15.105-8.985-21.465-15.35-15.112-15.111-23.436-35.203-23.436-56.573 0-3.48 2.304-6.43 5.464-7.407zm57.011 85.479-42.664-85.821h22.982l43.628 87.761h-6.411c-5.975-.001-11.842-.674-17.535-1.94zm38.463 1.939-43.628-87.761h10.983l43.618 87.761h-10.973zm51.509 50.717c-2.271 7.695-9.46 13.069-17.483 13.069H79.187c-6.483 0-12.85-2.092-17.928-5.891-30.543-22.85-48.583-59.237-48.254-97.337C13.57 110.186 68.303 56.76 135.014 56.76c.548 0 1.088.004 1.638.011 59.62.791 106.684 21.727 129.163 57.449.053.096.116.209.174.314h-90.214c-11.436 0-20.74 9.309-20.74 20.75 0 24.843 9.675 48.199 27.242 65.765 17.559 17.57 40.916 27.246 65.768 27.246h70.66l.96 2.771c3.932 11.345 4.215 23.429.816 34.946z"/>
    <path d="M128.605 135.536c-11.854 0-21.499 9.645-21.499 21.499s9.645 21.499 21.499 21.499c11.855 0 21.5-9.645 21.5-21.499s-9.645-21.499-21.5-21.499zm0 29.998c-4.687 0-8.499-3.813-8.499-8.499s3.813-8.499 8.499-8.499 8.5 3.813 8.5 8.499-3.813 8.499-8.5 8.499z"/>
  </g>
</svg>