<?xml version="1.0" encoding="UTF-8"?>
<svg width="18px" height="14px" viewBox="0 0 18 14" version="1.1" xmlns="http://www.w3.org/2000/svg" xmlns:xlink="http://www.w3.org/1999/xlink">
    <title>sign-out</title>
    <g id="Final" stroke="none" stroke-width="1" fill="none" fill-rule="evenodd">
        <path d="M6.32810991,14 C6.56012688,14 6.74998391,13.810143 6.74998391,13.578126 L6.74998391,12.734378 C6.74998391,12.5023611 6.56012688,12.312504 6.32810991,12.312504 L3.37499195,12.312504 C2.44335355,12.312504 1.68749598,11.5566465 1.68749598,10.625008 L1.68749598,3.87502414 C1.68749598,2.94338574 2.44335355,2.18752816 3.37499195,2.18752816 L6.32810991,2.18752816 C6.56012688,2.18752816 6.74998391,1.99767113 6.74998391,1.76565417 L6.74998391,0.921906181 C6.74998391,0.689889217 6.56012688,0.500032187 6.32810991,0.500032187 L3.37499195,0.500032187 C1.51171515,0.500032187 0,2.01174733 0,3.87502414 L0,10.625008 C0,12.4882849 1.51171515,14 3.37499195,14 L6.32810991,14 Z M12.097223,13.3109529 L17.8769105,7.54534162 C18.0421514,7.38010077 18.0421514,7.11289331 17.8769105,6.9476868 L12.097223,1.18207554 C11.9320165,1.02033658 11.6648091,1.02033658 11.4995682,1.18557743 L10.8105211,1.87462455 C10.6417784,2.04340161 10.6452803,2.31407663 10.8175592,2.47581559 L14.7937079,6.33595577 L6.04686058,6.33595577 C5.81484362,6.33595577 5.62498659,6.5258128 5.62498659,6.75782977 L5.62498659,7.74220242 C5.62498659,7.97421938 5.81484362,8.16407641 6.04686058,8.16407641 L14.7937079,8.16407641 L10.8175592,12.0207147 C10.6488165,12.1859556 10.6452803,12.4566306 10.8105211,12.6218714 L11.4995682,13.3109529 C11.6648091,13.4761594 11.9320165,13.4761594 12.097223,13.3109529 Z" id="sign-out" fill="#FFFFFF" fill-rule="nonzero"></path>
    </g>
</svg>