<?xml version="1.0" encoding="UTF-8"?>
<svg width="14px" height="16px" viewBox="0 0 14 16" version="1.1" xmlns="http://www.w3.org/2000/svg" xmlns:xlink="http://www.w3.org/1999/xlink">
    <title>stopwatch</title>
    <g id="Final" stroke="none" stroke-width="1" fill="none" fill-rule="evenodd">
        <path d="M6.99998331,15.9999952 C10.590612,15.9999952 13.4999678,13.0906394 13.4999678,9.50001073 C13.4999678,8.10313296 13.0593561,6.80940435 12.3093579,5.75001967 L13.015594,5.04378356 C13.1624747,4.89690281 13.1624747,4.65938506 13.015594,4.51253483 L12.4843452,3.98128609 C12.3374645,3.83440534 12.0999773,3.83440534 11.9530965,3.98128609 L11.3062169,4.62813514 C10.3343565,3.76876219 9.1062405,3.19378187 7.74998152,3.04064503 L7.74998152,1.50003338 L8.62497944,1.50003338 C8.83121674,1.50003338 8.99997854,1.331268 8.99997854,1.1250307 L8.99997854,0.375032485 C8.99997854,0.168795183 8.83121674,3.33786011e-05 8.62497944,3.33786011e-05 L5.37498719,3.33786011e-05 C5.16874988,3.33786011e-05 4.99998808,0.168795183 4.99998808,0.375032485 L4.99998808,1.1250307 C4.99998808,1.331268 5.16874988,1.50003338 5.37498719,1.50003338 L6.2499851,1.50003338 L6.2499851,3.04378833 C3.01250502,3.41564413 0.499998808,6.16252479 0.499998808,9.50001073 C0.499998808,13.0906394 3.40935466,15.9999952 6.99998331,15.9999952 Z M6.99998331,14.4999988 C4.23747769,14.4999988 1.99999523,12.2625163 1.99999523,9.50001073 C1.99999523,6.73750511 4.23747769,4.50002265 6.99998331,4.50002265 C9.76248893,4.50002265 11.9999714,6.73750511 11.9999714,9.50001073 C11.9999714,12.2625163 9.76248893,14.4999988 6.99998331,14.4999988 Z M7.37498242,11.0000072 C7.58121972,11.0000072 7.7499851,10.8312453 7.7499851,10.625008 L7.7499851,6.37501818 C7.7499851,6.16878088 7.58121972,6.00001907 7.37498242,6.00001907 L6.6249842,6.00001907 C6.4187469,6.00001907 6.2499851,6.16878088 6.2499851,6.37501818 L6.2499851,10.625008 C6.2499851,10.8312453 6.4187469,11.0000072 6.6249842,11.0000072 L7.37498242,11.0000072 Z" id="stopwatch" fill="#FFFFFF" fill-rule="nonzero"></path>
    </g>
</svg>