<?xml version="1.0" encoding="UTF-8"?>
<svg width="10px" height="10px" viewBox="0 0 10 10" version="1.1" xmlns="http://www.w3.org/2000/svg" xmlns:xlink="http://www.w3.org/1999/xlink">
    <title>times</title>
    <g id="Final" stroke="none" stroke-width="1" fill="none" fill-rule="evenodd">
        <path d="M1.63405982,9.85406767 L4.99998808,6.48749855 L8.36622151,9.8537625 C8.56092319,10.0484337 8.87684041,10.0484337 9.07184727,9.8537625 L9.85404145,9.07156832 C10.0487126,8.87686663 10.0487126,8.56094942 9.85404145,8.36594256 L6.48747233,5.00001431 L9.85373627,1.63378088 C10.0484074,1.43907919 10.0484074,1.12316198 9.85373627,0.928155117 L9.07154209,0.145960937 C8.87684041,-0.04871023 8.56092319,-0.04871023 8.36591633,0.145960937 L4.99998808,3.51253006 L1.63375465,0.146266112 C1.43905297,-0.048405055 1.12313575,-0.048405055 0.928128891,0.146266112 L0.146239886,0.928155117 C-0.048431281,1.12282628 -0.048431281,1.43877402 0.146239886,1.63378088 L3.51250383,5.00001431 L0.146239886,8.36624773 C-0.048431281,8.56094942 -0.048431281,8.87686663 0.146239886,9.07187349 L0.928434066,9.85406767 C1.12313575,10.0487388 1.43905297,10.0487388 1.63405982,9.85406767 Z" id="times" fill="#FFFFFF" fill-rule="nonzero"></path>
    </g>
</svg>