<?xml version="1.0" encoding="UTF-8"?>
<svg width="16px" height="16px" viewBox="0 0 16 16" version="1.1" xmlns="http://www.w3.org/2000/svg" xmlns:xlink="http://www.w3.org/1999/xlink">
    <title>tools</title>
    <g id="Final" stroke="none" stroke-width="1" fill="none" fill-rule="evenodd">
        <path d="M14.0124788,15.6593588 L15.6593255,14.0125122 C16.1124494,13.556245 16.1124494,12.8187589 15.6593255,12.365635 L11.9999714,8.70625041 C11.2781103,7.98438934 10.1999879,7.84376468 9.33121555,8.27189476 L5.99998569,4.94063439 L5.99998569,3.00003338 L2,3.33786011e-05 L0,2.00003338 L3,6.00001907 L4.94060101,6.00001907 L8.27186138,9.33124892 C7.84684408,10.2000213 7.98435596,11.2781437 8.70621704,12.0000048 L12.3656016,15.6593588 C12.8218383,16.1156261 13.5593549,16.1156261 14.0124788,15.6593588 Z M13.6655863,8.95939312 C13.9937105,8.76252469 14.3062098,8.52500695 14.5843463,8.24375762 C15.7749563,7.05314767 16.2624734,5.29689575 15.8562244,3.66253075 C15.7624746,3.28127556 15.4687131,2.98128848 15.093714,2.87502652 C14.7124588,2.76876457 14.3062098,2.87813931 14.0312165,3.15627585 L12.1968398,4.98750928 L11.1843605,4.81877799 L11.0155987,3.8062682 L12.8468322,1.97503477 C13.1249687,1.69689823 13.2312307,1.2906492 13.1249687,0.912537307 C13.0218501,0.534394898 12.7187197,0.240663908 12.3374645,0.146914132 C10.6749623,-0.265590988 8.9656206,0.209413983 7.75623761,1.4156489 C7.43748227,1.73440424 7.17811399,2.09377839 6.9656206,2.47503358 L6.99998331,2.50002742 L6.99998331,4.52815979 L7.9281122,5.45625816 C7.71561881,4.36876686 8.03748694,3.2593945 8.81873508,2.47814637 C9.45310246,1.84377898 10.2937377,1.50314259 11.1624795,1.50314259 L11.1999855,1.50314259 L9.40622757,3.29064443 L9.87808924,6.12190599 L12.7093508,6.59376766 L14.4999654,4.80315303 C14.5093343,5.68751982 14.1687284,6.5375239 13.5249617,7.18126015 C13.2343434,7.47187836 12.8937071,7.69377114 12.5312201,7.85627685 C12.5874639,7.90626453 12.653107,7.94688333 12.7062075,8.00001431 L13.6655863,8.95939312 Z M2.56249389,15.9999952 C3.24687947,15.9999952 3.89061572,15.7343709 4.37498957,15.249997 L7.52811926,12.0968673 C7.22498888,11.6031246 7.05311429,11.040626 7.03748932,10.4687584 L3.3124921,14.1874996 C2.91249916,14.5874925 2.20937584,14.5874925 1.80938289,14.1874996 C1.60937116,13.9874878 1.49688364,13.7187507 1.49688364,13.4375013 C1.49688364,13.1531392 1.60625838,12.8875149 1.80938289,12.6875031 L6.00935457,8.48750094 L4.95000041,7.42814677 L0.749998212,11.6250057 C0.265624367,12.1093795 0,12.7531158 0,13.4375013 C0,14.1218869 0.265624367,14.7656232 0.749998212,15.249997 C1.23437206,15.7343709 1.87810832,15.9999952 2.56249389,15.9999952 Z" id="tools" fill="#FFFFFF" fill-rule="nonzero"></path>
    </g>
</svg>