<?xml version="1.0" encoding="UTF-8"?>
<svg width="14px" height="16px" viewBox="0 0 14 16" version="1.1" xmlns="http://www.w3.org/2000/svg" xmlns:xlink="http://www.w3.org/1999/xlink">
    <title>user</title>
    <g id="Final" stroke="none" stroke-width="1" fill="none" fill-rule="evenodd">
        <path d="M6.99999285,8.00001431 C9.20935915,8.00001431 10.9999738,6.20939968 10.9999738,4.00003338 C10.9999738,1.79064801 9.20935915,3.33786011e-05 6.99999285,3.33786011e-05 C4.79060747,3.33786011e-05 2.99999285,1.79064801 2.99999285,4.00003338 C2.99999285,6.20939968 4.79060747,8.00001431 6.99999285,8.00001431 Z M12.4999702,15.9999952 C13.3280932,15.9999952 13.9999666,15.3281218 13.9999666,14.4999988 L13.9999666,13.2000141 C13.9999666,10.8812635 12.118715,9.00001192 9.79996443,9.00001192 L9.27811509,9.00001192 C8.58436064,9.31876726 7.81248137,9.50001192 6.99998331,9.50001192 C6.18748525,9.50001192 5.41874929,9.31876726 4.72185154,9.00001192 L4.20000219,9.00001192 C1.88125162,9.00001192 0,10.8812635 0,13.2000141 L0,14.4999988 C0,15.3281218 0.671873398,15.9999952 1.5,15.9999952 L12.4999702,15.9999952 Z" id="user" fill="#FFFFFF" fill-rule="nonzero"></path>
    </g>
</svg>