<?xml version="1.0" encoding="UTF-8"?>
<svg width="16px" height="17px" viewBox="0 0 16 17" version="1.1" xmlns="http://www.w3.org/2000/svg" xmlns:xlink="http://www.w3.org/1999/xlink">
    <title>whatsapp</title>
    <g id="Final" stroke="none" stroke-width="1" fill="none" fill-rule="evenodd">
        <path d="M0.125,16.1249973 L4.26288763,15.038658 C5.40192681,15.6609291 6.68512688,15.9878745 7.99294312,15.9878745 L7.99647934,15.9878745 C12.2960716,15.9878745 15.8749624,12.4863341 15.8749624,8.18320564 C15.8749624,6.09845186 14.9890202,4.14024653 13.5159974,2.66368755 C12.0429403,1.18712857 10.0812331,0.375034869 7.99647934,0.375034869 C3.69335087,0.375034869 0.191810449,3.87657529 0.191810449,8.17970376 C0.191810449,9.55429613 0.550375878,10.8972685 1.23241923,12.0820382 L0.125,16.1249973 Z M7.99647934,14.6730545 C6.82928776,14.6730545 5.68671236,14.3601509 4.69179972,13.7695342 L4.45624654,13.6289095 L2.00235301,14.2722605 L2.65624397,11.8781393 L2.5015431,11.6320461 C1.85115403,10.5984411 1.51016668,9.40666769 1.51016668,8.17970376 C1.51016668,4.60431479 4.42109037,1.6933911 7.99998122,1.6933911 C9.73317335,1.6933911 11.360897,2.36839636 12.584359,3.59532596 C13.8077867,4.82228989 14.5601081,6.45001352 14.5566184,8.18320564 C14.5566184,11.7621308 11.571834,14.6730545 7.99647934,14.6730545 Z M10.496069,11.9027555 C10.8722469,11.846485 11.6491844,11.4316491 11.8109234,10.974619 C11.972628,10.5175888 11.972628,10.1273691 11.9233956,10.0464825 C11.8776995,9.95859204 11.7476148,9.909394 11.5542559,9.81446549 C11.360897,9.71603509 10.4011405,9.24492873 10.2218578,9.1816545 C10.0425407,9.11484405 9.9124904,9.0832241 9.78240572,9.2800849 C9.65232104,9.47698003 9.27967941,9.91289589 9.16363659,10.0464825 C9.05116433,10.1765671 8.93512151,10.1941452 8.7417626,10.0957148 C7.59568531,9.52267618 6.84332962,9.07268411 6.08747205,7.77540785 C5.88710937,7.43088429 6.28786907,7.45550047 6.66054503,6.71018288 C6.72381926,6.5800982 6.69216498,6.4675916 6.64296694,6.3691612 C6.59373458,6.2707308 6.20351487,5.31097433 6.0417759,4.92072029 C5.88357315,4.54104056 5.72186852,4.59377481 5.60232382,4.58673671 C5.48981723,4.57969861 5.35976688,4.57969861 5.2296822,4.57969861 C5.09959751,4.57969861 4.88866052,4.62893098 4.7093778,4.82228989 C4.53006076,5.01915069 4.02733445,5.49025705 4.02733445,6.45001352 C4.02733445,7.34978521 4.6422361,8.22176593 4.79728921,8.43443526 L4.82185007,8.46799119 C4.9203148,8.59807587 6.19647677,10.5668212 8.15468209,11.414071 C9.39215167,11.9484516 9.87733423,11.9941478 10.496069,11.9027555 Z" id="whatsapp" fill="#FFFFFF" fill-rule="nonzero"></path>
    </g>
</svg>